%TF.GenerationSoftware,KiCad,Pcbnew,7.0.11-7.0.11~ubuntu22.04.1*%
%TF.CreationDate,2025-12-15T14:43:49+02:00*%
%TF.ProjectId,Neo6502kbd_Rev_A,4e656f36-3530-4326-9b62-645f5265765f,A*%
%TF.SameCoordinates,PXc1988c0PY839b680*%
%TF.FileFunction,Soldermask,Bot*%
%TF.FilePolarity,Negative*%
%FSLAX46Y46*%
G04 Gerber Fmt 4.6, Leading zero omitted, Abs format (unit mm)*
G04 Created by KiCad (PCBNEW 7.0.11-7.0.11~ubuntu22.04.1) date 2025-12-15 14:43:49*
%MOMM*%
%LPD*%
G01*
G04 APERTURE LIST*
G04 Aperture macros list*
%AMRoundRect*
0 Rectangle with rounded corners*
0 $1 Rounding radius*
0 $2 $3 $4 $5 $6 $7 $8 $9 X,Y pos of 4 corners*
0 Add a 4 corners polygon primitive as box body*
4,1,4,$2,$3,$4,$5,$6,$7,$8,$9,$2,$3,0*
0 Add four circle primitives for the rounded corners*
1,1,$1+$1,$2,$3*
1,1,$1+$1,$4,$5*
1,1,$1+$1,$6,$7*
1,1,$1+$1,$8,$9*
0 Add four rect primitives between the rounded corners*
20,1,$1+$1,$2,$3,$4,$5,0*
20,1,$1+$1,$4,$5,$6,$7,0*
20,1,$1+$1,$6,$7,$8,$9,0*
20,1,$1+$1,$8,$9,$2,$3,0*%
G04 Aperture macros list end*
%ADD10C,1.101600*%
%ADD11C,1.901600*%
%ADD12RoundRect,0.050800X0.889000X-0.889000X0.889000X0.889000X-0.889000X0.889000X-0.889000X-0.889000X0*%
%ADD13C,1.879600*%
%ADD14O,1.401600X2.401600*%
%ADD15O,1.401600X2.801600*%
%ADD16RoundRect,0.050800X-1.000000X-1.000000X1.000000X-1.000000X1.000000X1.000000X-1.000000X1.000000X0*%
%ADD17C,2.101600*%
%ADD18O,1.901600X2.901600*%
%ADD19RoundRect,0.050800X-0.889000X0.889000X-0.889000X-0.889000X0.889000X-0.889000X0.889000X0.889000X0*%
%ADD20RoundRect,0.050800X-0.889000X-0.889000X0.889000X-0.889000X0.889000X0.889000X-0.889000X0.889000X0*%
%ADD21C,0.701600*%
%ADD22O,1.301600X2.301600*%
%ADD23O,1.401600X2.101600*%
%ADD24C,2.641600*%
%ADD25C,2.133600*%
%ADD26C,2.701600*%
%ADD27O,2.301600X1.301600*%
%ADD28O,2.101600X1.401600*%
%ADD29C,3.401600*%
G04 APERTURE END LIST*
D10*
%TO.C,U3*%
X84446450Y21711660D03*
X82046450Y21711660D03*
D11*
X83246450Y20511660D03*
D10*
X84446450Y19311660D03*
X82046450Y19241660D03*
%TD*%
D12*
%TO.C,SWD1*%
X98913192Y26226660D03*
D13*
X98913192Y28766660D03*
X98913192Y31306660D03*
%TD*%
D14*
%TO.C,DVI1*%
X101700000Y57450000D03*
D15*
X101700000Y51400000D03*
D14*
X116300000Y57450000D03*
D15*
X116300000Y51400000D03*
%TD*%
D16*
%TO.C,SPK1*%
X106750000Y6000000D03*
D17*
X110750000Y6000000D03*
%TD*%
D18*
%TO.C,USB-HOST4*%
X91400000Y53150000D03*
X78600000Y53150000D03*
%TD*%
D19*
%TO.C,UEXT1*%
X132960000Y15580000D03*
D13*
X135500000Y15580000D03*
X132960000Y13040000D03*
X135500000Y13040000D03*
X132960000Y10500000D03*
X135500000Y10500000D03*
X132960000Y7960000D03*
X135500000Y7960000D03*
X132960000Y5420000D03*
X135500000Y5420000D03*
%TD*%
D20*
%TO.C,+5V_USB1*%
X2000000Y38000000D03*
%TD*%
D19*
%TO.C,GND1*%
X2000000Y26000000D03*
%TD*%
D18*
%TO.C,USB-HOST2*%
X43400000Y53150000D03*
X30600000Y53150000D03*
%TD*%
D21*
%TO.C,USB-PWR1*%
X125110000Y54470000D03*
X130890000Y54470000D03*
D22*
X123680000Y53970000D03*
X132320000Y53970000D03*
D23*
X123680000Y58150000D03*
X132320000Y58150000D03*
%TD*%
D18*
%TO.C,USB-HOST3*%
X67400000Y53150000D03*
X54600000Y53150000D03*
%TD*%
D24*
%TO.C,BOOT1*%
X139755400Y50994800D03*
X139755400Y58005200D03*
D25*
X142244600Y52239400D03*
X142244600Y56760600D03*
%TD*%
D26*
%TO.C,PWR_OFF/ON1*%
X143200000Y35650000D03*
X143200000Y22350000D03*
X134000000Y33800000D03*
X134000000Y29000000D03*
X134000000Y24200000D03*
%TD*%
D20*
%TO.C,+3.3V1*%
X2000000Y32000000D03*
%TD*%
D19*
%TO.C,+1V1*%
X2000000Y29000000D03*
%TD*%
D21*
%TO.C,USB-PGM1*%
X139470000Y46070000D03*
X139470000Y40290000D03*
D27*
X138970000Y47500000D03*
X138970000Y38860000D03*
D28*
X143150000Y47500000D03*
X143150000Y38860000D03*
%TD*%
D20*
%TO.C,+5V1*%
X2000000Y35000000D03*
%TD*%
D18*
%TO.C,USB-HOST1*%
X19400000Y53150000D03*
X6600000Y53150000D03*
%TD*%
D29*
%TO.C,MH1*%
X132000000Y47000001D03*
%TD*%
%TO.C,MH3*%
X127000000Y4000000D03*
%TD*%
%TO.C,MH4*%
X6000000Y4000000D03*
%TD*%
%TO.C,MH2*%
X6000000Y47000000D03*
%TD*%
G36*
X2442121Y14197998D02*
G01*
X2488614Y14144342D01*
X2500000Y14092000D01*
X2500000Y6343999D01*
X2479998Y6275878D01*
X2426342Y6229385D01*
X2374000Y6217999D01*
X1126000Y6217999D01*
X1057879Y6238001D01*
X1011386Y6291657D01*
X1000000Y6343999D01*
X1000000Y14092000D01*
X1020002Y14160121D01*
X1073658Y14206614D01*
X1126000Y14218000D01*
X2374000Y14218000D01*
X2442121Y14197998D01*
G37*
M02*
