M48
; DRILL file {KiCad 7.0.11-7.0.11~ubuntu22.04.1} date 15.12.2025 (пн) 14:44:00
; FORMAT={-:-/ absolute / metric / decimal}
; #@! TF.CreationDate,2025-12-15T14:44:00+02:00
; #@! TF.GenerationSoftware,Kicad,Pcbnew,7.0.11-7.0.11~ubuntu22.04.1
; #@! TF.FileFunction,Plated,1,4,PTH
FMAT,2
METRIC
; #@! TA.AperFunction,Plated,PTH,ViaDrill
T1C0.400
; #@! TA.AperFunction,Plated,PTH,ViaDrill
T2C0.600
; #@! TA.AperFunction,Plated,PTH,ComponentDrill
T3C0.600
; #@! TA.AperFunction,Plated,PTH,ComponentDrill
T4C0.800
; #@! TA.AperFunction,Plated,PTH,ComponentDrill
T5C1.000
; #@! TA.AperFunction,Plated,PTH,ComponentDrill
T6C1.016
; #@! TA.AperFunction,Plated,PTH,ComponentDrill
T7C1.200
; #@! TA.AperFunction,Plated,PTH,ComponentDrill
T8C1.524
; #@! TA.AperFunction,Plated,PTH,ComponentDrill
T9C1.600
%
G90
G05
T1
X7.5Y9.71
X8.5Y15.0
X11.0Y30.75
X11.5Y15.0
X12.25Y30.75
X12.456Y18.24
X13.384Y18.24
X13.5Y30.75
X13.75Y13.25
X13.75Y11.0
X14.75Y13.25
X14.758Y14.6
X17.0Y59.0
X17.0Y17.0
X17.0Y11.0
X18.091Y14.5
X18.75Y59.0
X19.0Y2.9
X20.0Y14.5
X20.75Y44.0
X20.75Y30.75
X21.0Y14.5
X21.75Y24.0
X21.75Y20.0
X22.0Y49.75
X22.0Y47.25
X22.25Y31.5
X23.5Y43.05
X23.5Y41.5
X23.5Y21.25
X24.0Y2.9
X24.25Y22.0
X24.25Y15.25
X25.0Y22.75
X25.75Y28.25
X25.758Y44.6
X26.5Y44.0
X26.5Y30.75
X26.5Y29.0
X26.6Y59.0
X27.25Y14.25
X27.75Y59.0
X27.75Y41.5
X27.75Y12.75
X29.0Y2.9
X31.306Y27.224
X32.827Y28.25
X32.827Y24.2
X33.113Y19.517
X33.25Y15.0
X33.25Y5.5
X33.913Y20.33
X34.255Y5.5
X35.25Y14.04
X35.26Y5.5
X37.913Y30.25
X37.913Y27.117
X47.25Y59.0
X53.253Y17.66
X53.5Y31.159
X53.528Y20.644
X53.913Y22.549
X53.913Y23.946
X54.013Y25.317
X54.413Y32.017
X54.423Y17.1
X54.798Y23.946
X54.798Y22.549
X54.813Y25.317
X55.096Y16.354
X55.096Y20.392
X55.163Y31.517
X55.362Y13.686
X55.433Y9.51
X55.433Y8.452
X55.645Y21.105
X55.899Y15.75
X55.913Y32.017
X55.913Y26.517
X56.237Y13.072
X56.237Y10.108
X56.313Y14.917
X56.344Y21.724
X56.663Y23.267
X56.695Y14.017
X56.957Y12.389
X56.957Y10.865
X57.002Y24.417
X57.156Y26.559
X57.361Y28.191
X57.788Y25.343
X57.931Y29.019
X57.973Y21.787
X62.164Y13.278
X62.545Y16.707
X62.545Y15.691
X62.799Y10.357
X62.799Y9.341
X63.561Y15.691
X63.815Y12.262
X63.815Y11.119
X63.815Y13.278
X64.14Y19.826
X65.212Y23.184
X66.101Y23.946
X66.435Y20.503
X66.44Y10.992
X66.453Y19.148
X67.371Y23.819
X67.371Y15.183
X67.371Y11.517
X68.387Y23.819
X68.387Y15.183
X68.387Y11.5
X69.149Y28.01
X69.386Y10.932
X69.454Y11.83
X69.826Y22.895
X69.848Y12.833
X69.911Y23.946
X70.663Y26.517
X70.798Y13.054
X70.8Y16.199
X70.983Y11.7
X71.054Y31.8
X71.054Y30.2
X71.181Y23.946
X71.181Y19.501
X71.25Y59.0
X71.435Y18.612
X71.645Y26.517
X71.663Y27.517
X71.943Y17.85
X71.943Y20.517
X72.261Y11.944
X73.34Y16.286
X73.34Y11.881
X74.229Y24.91
X74.229Y15.946
X75.013Y24.91
X75.753Y20.517
X76.007Y27.121
X76.007Y25.851
X77.277Y25.851
X77.4Y33.4
X77.404Y29.978
X77.404Y27.629
X78.42Y29.153
X78.42Y27.629
X78.801Y16.262
X79.436Y16.834
X79.69Y24.073
X80.4Y33.4
X80.579Y12.643
X81.214Y13.278
X81.341Y20.517
X81.341Y18.231
X81.341Y22.676
X81.849Y13.913
X82.357Y31.947
X83.246Y22.676
X83.246Y18.231
X84.413Y28.817
X84.516Y32.455
X85.088Y29.534
X85.151Y22.676
X85.151Y20.517
X85.151Y18.231
X85.405Y10.357
X85.786Y31.185
X85.813Y28.817
X85.913Y11.017
X86.0Y13.608
X87.418Y31.567
X88.199Y12.643
X88.203Y10.23
X88.346Y31.567
X89.215Y13.278
X89.25Y18.25
X89.469Y10.23
X89.977Y31.123
X89.977Y28.899
X91.113Y28.899
X91.12Y25.47
X91.12Y22.153
X91.12Y20.644
X91.12Y19.12
X91.12Y14.675
X91.251Y11.249
X92.113Y28.899
X92.75Y35.75
X92.83Y19.783
X93.5Y34.75
X93.913Y14.517
X94.5Y34.75
X94.5Y33.75
X94.5Y35.75
X94.913Y14.517
X95.213Y31.713
X95.215Y32.84
X95.25Y59.0
X95.593Y33.737
X95.913Y21.767
X97.163Y23.017
X97.75Y58.0
X98.413Y24.267
X98.822Y45.825
X100.03Y45.825
X105.5Y47.25
X106.708Y47.25
X107.0Y16.5
X108.25Y38.5
X109.0Y15.0
X109.0Y14.0
X109.5Y15.939
X110.25Y16.5
X111.043Y15.922
X115.0Y14.0
X116.0Y13.0
X120.5Y28.375
X122.5Y30.192
X122.9Y27.7
X122.9Y26.0
X123.75Y27.9
X124.5Y27.9
X124.639Y26.0
X124.75Y30.25
X125.6Y26.8
X125.6Y26.0
X125.6Y25.2
X125.6Y24.4
X125.75Y10.5
X126.0Y45.3
X126.0Y27.5
X126.5Y26.8
X126.5Y26.0
X126.5Y25.2
X126.5Y24.4
X126.7Y46.0
X126.9Y27.5
X127.25Y12.5
X127.4Y26.8
X127.4Y26.0
X127.4Y25.2
X127.4Y24.4
X127.5Y45.3
X129.072Y8.322
X130.3Y40.8
X131.0Y41.6
X131.0Y40.0
X132.25Y38.5
X136.2Y43.144
X136.2Y42.216
T2
X1.25Y58.0
X1.25Y54.0
X1.25Y50.0
X1.25Y46.0
X1.25Y43.0
X1.25Y39.75
X1.25Y24.0
X1.25Y20.0
X1.25Y16.0
X1.25Y4.0
X1.25Y1.0
X3.0Y22.0
X3.0Y18.0
X4.0Y57.0
X4.0Y54.0
X4.0Y51.0
X5.0Y39.75
X6.0Y38.0
X6.0Y36.0
X6.25Y11.0
X8.25Y52.5
X8.25Y51.0
X9.0Y57.0
X9.0Y54.0
X9.0Y38.0
X9.0Y36.0
X9.0Y32.0
X9.0Y28.0
X9.0Y24.0
X9.0Y20.0
X9.5Y52.5
X9.5Y49.25
X11.0Y26.0
X11.0Y22.0
X11.75Y48.0
X11.75Y44.0
X11.75Y40.75
X11.75Y38.25
X11.75Y35.75
X14.0Y57.0
X14.0Y54.0
X14.0Y5.0
X14.0Y3.0
X14.0Y1.0
X14.25Y48.0
X14.25Y44.0
X14.25Y40.75
X14.25Y38.25
X14.25Y35.75
X16.25Y44.0
X19.0Y5.5
X19.0Y1.0
X20.75Y40.75
X20.75Y38.25
X20.75Y35.75
X20.75Y33.25
X23.25Y48.5
X23.5Y53.0
X24.0Y18.0
X24.0Y5.5
X24.0Y1.0
X26.0Y24.0
X26.0Y20.0
X26.0Y16.0
X26.25Y38.25
X26.25Y35.75
X26.25Y33.25
X26.5Y53.0
X28.0Y11.0
X29.0Y5.5
X29.0Y1.0
X29.25Y47.25
X29.25Y46.0
X29.25Y11.0
X30.5Y47.25
X30.5Y11.0
X31.303Y23.438
X31.303Y21.914
X31.303Y17.342
X31.303Y24.962
X31.303Y15.691
X31.313Y14.04
X31.5Y36.75
X31.5Y33.25
X32.0Y44.25
X32.25Y52.5
X32.25Y51.0
X32.25Y49.25
X32.75Y41.5
X33.0Y34.25
X33.5Y52.5
X33.5Y49.25
X33.75Y39.0
X34.0Y1.0
X34.5Y46.75
X35.25Y44.0
X35.25Y36.75
X36.25Y41.5
X37.5Y39.0
X38.161Y12.008
X38.161Y10.865
X38.163Y9.722
X39.0Y46.75
X39.0Y44.25
X39.0Y1.0
X39.304Y9.722
X39.413Y8.517
X39.787Y28.279
X39.796Y29.584
X39.913Y23.517
X39.913Y21.517
X39.913Y19.517
X39.913Y17.517
X39.913Y15.517
X40.0Y41.5
X41.163Y9.767
X41.663Y8.467
X41.913Y15.517
X41.913Y23.5
X41.913Y21.517
X41.913Y19.517
X41.913Y17.517
X42.098Y10.865
X42.098Y9.767
X43.876Y23.483
X43.876Y21.5
X43.876Y19.517
X43.876Y17.517
X43.876Y15.517
X43.913Y8.517
X44.0Y46.75
X44.0Y44.25
X44.0Y41.75
X44.0Y7.0
X44.0Y1.0
X45.913Y23.483
X45.913Y21.5
X45.913Y19.517
X45.913Y17.517
X45.913Y15.517
X46.0Y53.0
X46.0Y51.5
X46.0Y50.0
X47.25Y53.0
X47.25Y51.5
X47.25Y50.0
X47.25Y48.5
X47.75Y23.483
X47.75Y21.5
X47.75Y19.517
X47.75Y17.517
X47.75Y15.489
X49.0Y46.75
X49.0Y44.25
X49.0Y41.75
X49.0Y7.0
X49.0Y1.0
X54.0Y46.75
X54.0Y44.25
X54.0Y41.75
X54.0Y1.0
X56.25Y52.5
X56.25Y51.0
X56.25Y49.25
X57.5Y52.5
X57.5Y49.25
X59.0Y46.75
X59.0Y44.25
X59.0Y41.75
X59.0Y1.0
X62.5Y46.75
X64.0Y44.25
X64.0Y41.75
X64.0Y7.0
X64.0Y1.0
X66.863Y28.264
X66.863Y26.994
X69.0Y47.0
X69.0Y44.25
X69.0Y41.75
X69.0Y7.0
X69.0Y1.0
X69.234Y53.0
X69.234Y51.5
X69.234Y50.0
X70.484Y53.0
X70.484Y51.5
X70.484Y50.0
X70.484Y48.5
X74.0Y47.0
X74.0Y44.25
X74.0Y41.75
X74.0Y7.0
X74.0Y1.0
X79.0Y47.0
X79.0Y44.25
X79.0Y41.75
X79.0Y1.0
X80.25Y52.5
X80.25Y51.0
X80.25Y49.25
X81.5Y52.5
X81.5Y49.25
X82.75Y47.0
X82.75Y44.25
X82.75Y41.75
X84.0Y1.0
X85.25Y42.75
X86.75Y47.0
X86.75Y44.25
X89.0Y1.0
X92.771Y26.867
X93.984Y53.0
X93.984Y51.5
X93.984Y50.0
X94.0Y56.0
X94.0Y1.0
X95.234Y53.0
X95.234Y51.5
X95.234Y50.0
X95.234Y48.5
X95.913Y15.767
X95.913Y13.267
X99.0Y56.0
X99.0Y1.0
X100.0Y51.0
X103.5Y52.25
X103.5Y51.0
X103.5Y49.75
X104.0Y59.0
X104.0Y56.0
X104.0Y1.0
X105.0Y52.25
X106.5Y52.25
X108.1Y52.25
X109.0Y59.0
X109.0Y56.0
X109.0Y1.0
X109.5Y52.25
X112.0Y52.2
X114.0Y59.0
X114.0Y56.0
X114.0Y1.0
X115.0Y40.0
X115.0Y37.0
X115.0Y31.0
X116.25Y33.75
X117.5Y35.0
X117.5Y33.75
X118.75Y55.0
X118.75Y52.0
X118.75Y33.75
X119.0Y1.0
X119.5Y41.5
X121.0Y40.0
X121.0Y37.0
X121.75Y32.25
X121.75Y31.25
X121.75Y26.25
X121.75Y25.25
X124.0Y1.0
X124.75Y33.75
X125.0Y59.0
X125.0Y37.0
X125.1Y51.1
X125.75Y33.75
X125.75Y32.75
X126.5Y57.75
X128.0Y59.0
X129.5Y57.75
X129.8Y51.1
X130.0Y1.0
X131.0Y59.0
X134.0Y59.0
X134.0Y54.0
X134.0Y51.0
X134.0Y1.0
X135.75Y59.0
X135.75Y51.0
X139.0Y36.0
X139.0Y33.0
X139.0Y29.0
X139.0Y25.0
X139.0Y20.0
X139.0Y16.0
X139.0Y6.0
X139.0Y1.0
X139.183Y11.0
X141.5Y31.0
X141.5Y27.0
X141.5Y18.0
X141.5Y13.5
X141.5Y8.5
X141.5Y3.5
X142.0Y45.0
X142.0Y41.0
X144.0Y54.5
X144.0Y45.0
X144.0Y41.0
X144.0Y33.0
X144.0Y29.0
X144.0Y25.0
X144.0Y20.0
X144.0Y16.0
X144.0Y11.0
X144.0Y6.0
X144.0Y1.0
T3
X82.046Y21.712
X82.046Y19.242
X84.446Y21.712
X84.446Y19.312
T5
X2.0Y38.0
X2.0Y35.0
X2.0Y32.0
X2.0Y29.0
X2.0Y26.0
X98.913Y31.307
X98.913Y28.767
X98.913Y26.227
X106.75Y6.0
X110.75Y6.0
X132.96Y15.58
X132.96Y13.04
X132.96Y10.5
X132.96Y7.96
X132.96Y5.42
X135.5Y15.58
X135.5Y13.04
X135.5Y10.5
X135.5Y7.96
X135.5Y5.42
T6
X142.245Y56.761
X142.245Y52.239
T7
X83.246Y20.512
T8
X139.755Y58.005
X139.755Y50.995
T9
X134.0Y33.8
X134.0Y29.0
X134.0Y24.2
X143.2Y35.65
X143.2Y22.35
T4
G00X6.6Y52.65
M15
G01X6.6Y53.65
M16
G05
G00X19.4Y52.65
M15
G01X19.4Y53.65
M16
G05
G00X30.6Y52.65
M15
G01X30.6Y53.65
M16
G05
G00X43.4Y52.65
M15
G01X43.4Y53.65
M16
G05
G00X54.6Y52.65
M15
G01X54.6Y53.65
M16
G05
G00X67.4Y52.65
M15
G01X67.4Y53.65
M16
G05
G00X78.6Y52.65
M15
G01X78.6Y53.65
M16
G05
G00X91.4Y52.65
M15
G01X91.4Y53.65
M16
G05
G00X101.7Y57.95
M15
G01X101.7Y56.95
M16
G05
G00X101.7Y52.1
M15
G01X101.7Y50.7
M16
G05
G00X116.3Y57.95
M15
G01X116.3Y56.95
M16
G05
G00X116.3Y52.1
M15
G01X116.3Y50.7
M16
G05
G00X123.68Y57.85
M15
G01X123.68Y58.45
M16
G05
G00X123.68Y53.52
M15
G01X123.68Y54.42
M16
G05
G00X132.32Y57.85
M15
G01X132.32Y58.45
M16
G05
G00X132.32Y53.52
M15
G01X132.32Y54.42
M16
G05
G00X138.52Y47.5
M15
G01X139.42Y47.5
M16
G05
G00X138.52Y38.86
M15
G01X139.42Y38.86
M16
G05
G00X142.85Y47.5
M15
G01X143.45Y47.5
M16
G05
G00X142.85Y38.86
M15
G01X143.45Y38.86
M16
G05
M30
