%TF.GenerationSoftware,KiCad,Pcbnew,7.0.11-7.0.11~ubuntu22.04.1*%
%TF.CreationDate,2025-12-15T14:43:49+02:00*%
%TF.ProjectId,Neo6502kbd_Rev_A,4e656f36-3530-4326-9b62-645f5265765f,A*%
%TF.SameCoordinates,PXc1988c0PY839b680*%
%TF.FileFunction,Paste,Top*%
%TF.FilePolarity,Positive*%
%FSLAX46Y46*%
G04 Gerber Fmt 4.6, Leading zero omitted, Abs format (unit mm)*
G04 Created by KiCad (PCBNEW 7.0.11-7.0.11~ubuntu22.04.1) date 2025-12-15 14:43:49*
%MOMM*%
%LPD*%
G01*
G04 APERTURE LIST*
G04 Aperture macros list*
%AMRoundRect*
0 Rectangle with rounded corners*
0 $1 Rounding radius*
0 $2 $3 $4 $5 $6 $7 $8 $9 X,Y pos of 4 corners*
0 Add a 4 corners polygon primitive as box body*
4,1,4,$2,$3,$4,$5,$6,$7,$8,$9,$2,$3,0*
0 Add four circle primitives for the rounded corners*
1,1,$1+$1,$2,$3*
1,1,$1+$1,$4,$5*
1,1,$1+$1,$6,$7*
1,1,$1+$1,$8,$9*
0 Add four rect primitives between the rounded corners*
20,1,$1+$1,$2,$3,$4,$5,0*
20,1,$1+$1,$4,$5,$6,$7,0*
20,1,$1+$1,$6,$7,$8,$9,0*
20,1,$1+$1,$8,$9,$2,$3,0*%
G04 Aperture macros list end*
%ADD10R,0.550000X0.500000*%
%ADD11R,0.500000X0.550000*%
%ADD12C,1.000000*%
%ADD13R,1.016000X1.016000*%
%ADD14R,1.400000X1.200000*%
%ADD15R,1.016000X0.762000*%
%ADD16R,1.016000X0.508000*%
%ADD17R,2.200000X0.600000*%
%ADD18R,0.211000X0.886000*%
%ADD19R,0.886000X0.211000*%
%ADD20R,1.700000X0.800000*%
%ADD21R,0.800000X0.949200*%
%ADD22R,1.400000X0.350000*%
%ADD23R,2.400000X2.800000*%
%ADD24R,2.400000X3.200000*%
%ADD25R,0.230000X1.580000*%
%ADD26R,0.400000X2.000000*%
%ADD27R,2.000000X0.400000*%
%ADD28R,1.270000X1.524000*%
%ADD29R,0.800000X0.800000*%
%ADD30R,2.800000X3.400000*%
%ADD31R,1.800000X2.800000*%
%ADD32R,1.500000X2.800000*%
%ADD33R,1.000000X2.000000*%
%ADD34RoundRect,0.250000X0.500000X1.000000X-0.500000X1.000000X-0.500000X-1.000000X0.500000X-1.000000X0*%
%ADD35R,2.000000X1.100000*%
%ADD36R,1.700000X2.000000*%
%ADD37R,2.100000X3.200000*%
%ADD38R,2.100000X3.000000*%
%ADD39R,1.100000X2.200000*%
%ADD40R,1.100000X2.000000*%
%ADD41R,0.280000X1.130000*%
%ADD42R,0.230000X1.130000*%
%ADD43R,1.524000X1.778000*%
%ADD44R,1.000000X1.400000*%
%ADD45R,0.750000X0.230000*%
%ADD46R,1.200000X0.550000*%
%ADD47R,3.200000X2.100000*%
%ADD48R,3.000000X2.100000*%
%ADD49R,2.200000X1.100000*%
%ADD50R,1.130000X0.280000*%
%ADD51R,1.130000X0.230000*%
%ADD52R,0.320000X1.500000*%
%ADD53R,2.000000X1.700000*%
%ADD54R,1.400000X1.000000*%
G04 APERTURE END LIST*
D10*
%TO.C,C39*%
X41209450Y29406660D03*
X41209450Y28390660D03*
%TD*%
D11*
%TO.C,R46*%
X91755450Y22167660D03*
X92771450Y22167660D03*
%TD*%
%TO.C,R50*%
X91755450Y20643660D03*
X92771450Y20643660D03*
%TD*%
D10*
%TO.C,R23*%
X109500000Y17508000D03*
X109500000Y16492000D03*
%TD*%
%TO.C,R25*%
X108000000Y17508001D03*
X108000000Y16492001D03*
%TD*%
D12*
%TO.C,FID2*%
X8000000Y42000000D03*
%TD*%
D13*
%TO.C,C35*%
X112750000Y17889000D03*
X112750000Y16111000D03*
%TD*%
D10*
%TO.C,C37*%
X111000000Y17508000D03*
X111000000Y16492000D03*
%TD*%
D11*
%TO.C,C1*%
X84008449Y31946660D03*
X82992449Y31946660D03*
%TD*%
D10*
%TO.C,C2*%
X91120450Y13023660D03*
X91120450Y12007660D03*
%TD*%
D11*
%TO.C,C3*%
X74229450Y25596660D03*
X73213450Y25596660D03*
%TD*%
%TO.C,C4*%
X74229450Y15309659D03*
X73213450Y15309659D03*
%TD*%
D10*
%TO.C,C5*%
X88199450Y12007660D03*
X88199450Y10991660D03*
%TD*%
D11*
%TO.C,C6*%
X91755450Y19119660D03*
X92771450Y19119660D03*
%TD*%
%TO.C,C7*%
X91755450Y25469660D03*
X92771450Y25469660D03*
%TD*%
D10*
%TO.C,C8*%
X84389450Y29533661D03*
X84389450Y30549661D03*
%TD*%
%TO.C,C9*%
X85786450Y29533660D03*
X85786450Y30549660D03*
%TD*%
%TO.C,C10*%
X92771450Y29533661D03*
X92771450Y30549661D03*
%TD*%
%TO.C,C11*%
X91374451Y29533661D03*
X91374451Y30549661D03*
%TD*%
%TO.C,C12*%
X89977449Y29533661D03*
X89977449Y30549661D03*
%TD*%
%TO.C,C14*%
X82992450Y29533660D03*
X82992450Y30549660D03*
%TD*%
%TO.C,C15*%
X80071451Y10991661D03*
X80071451Y12007661D03*
%TD*%
%TO.C,C16*%
X85405449Y12007660D03*
X85405449Y10991660D03*
%TD*%
D11*
%TO.C,C38*%
X33335450Y20389661D03*
X32319450Y20389661D03*
%TD*%
%TO.C,C40*%
X55560450Y22548659D03*
X56576450Y22548659D03*
%TD*%
%TO.C,C41*%
X55560450Y23945660D03*
X56576450Y23945660D03*
%TD*%
%TO.C,C42*%
X68387452Y14420660D03*
X67371452Y14420660D03*
%TD*%
%TO.C,C43*%
X68387450Y15817660D03*
X67371450Y15817660D03*
%TD*%
%TO.C,C44*%
X68387450Y23183660D03*
X67371450Y23183660D03*
%TD*%
%TO.C,C45*%
X68387450Y24453659D03*
X67371450Y24453659D03*
%TD*%
D14*
%TO.C,Q1*%
X81638449Y10699660D03*
X83838449Y12299660D03*
X81638449Y12299660D03*
X83838449Y10699660D03*
%TD*%
D11*
%TO.C,R2*%
X71054450Y30930660D03*
X72070450Y30930660D03*
%TD*%
D10*
%TO.C,R3*%
X92390450Y13023660D03*
X92390450Y12007660D03*
%TD*%
%TO.C,R4*%
X86802449Y10991660D03*
X86802449Y12007660D03*
%TD*%
%TO.C,R5*%
X88580449Y30549660D03*
X88580449Y29533660D03*
%TD*%
%TO.C,R6*%
X87183450Y30549660D03*
X87183450Y29533660D03*
%TD*%
D11*
%TO.C,R8*%
X78092000Y33400000D03*
X79108000Y33400000D03*
%TD*%
%TO.C,R29*%
X33335450Y15690660D03*
X32319450Y15690660D03*
%TD*%
%TO.C,R30*%
X33335450Y14039659D03*
X32319450Y14039659D03*
%TD*%
%TO.C,R31*%
X33335450Y25088660D03*
X32319450Y25088660D03*
%TD*%
%TO.C,R32*%
X33335450Y23437660D03*
X32319450Y23437660D03*
%TD*%
%TO.C,R42*%
X67371450Y21913660D03*
X68387450Y21913660D03*
%TD*%
%TO.C,R43*%
X56576450Y25342660D03*
X55560450Y25342660D03*
%TD*%
D15*
%TO.C,RM1*%
X74483450Y21405660D03*
X72959450Y21405660D03*
D16*
X74483450Y22294660D03*
X72959450Y22294660D03*
X74483450Y23056660D03*
X72959450Y23056660D03*
D15*
X74483450Y23945660D03*
X72959450Y23945660D03*
%TD*%
%TO.C,RM2*%
X74483449Y16960660D03*
X72959449Y16960660D03*
D16*
X74483449Y17849660D03*
X72959449Y17849660D03*
X74483449Y18611660D03*
X72959449Y18611660D03*
D15*
X74483449Y19500660D03*
X72959449Y19500660D03*
%TD*%
D17*
%TO.C,U1*%
X74296450Y30930660D03*
X74296450Y29660660D03*
X74296450Y28390660D03*
X74296450Y27120660D03*
X80766450Y27120660D03*
X80766450Y28390660D03*
X80766450Y29660660D03*
X80766450Y30930660D03*
%TD*%
D18*
%TO.C,U3*%
X85846450Y23949160D03*
X85446450Y23949160D03*
X85046450Y23949160D03*
X84646450Y23949160D03*
X84246450Y23949160D03*
X83846450Y23949160D03*
X83446450Y23949160D03*
X83046450Y23949160D03*
X82646450Y23949160D03*
X82246450Y23949160D03*
X81846450Y23949160D03*
X81446450Y23949160D03*
X81046450Y23949160D03*
X80646450Y23949160D03*
D19*
X86683950Y23111660D03*
X79808950Y23111660D03*
X86683950Y22711660D03*
X79808950Y22711660D03*
X86683950Y22311660D03*
X79808950Y22311660D03*
X86683950Y21911660D03*
X79808950Y21911660D03*
D20*
X83246450Y21705460D03*
D19*
X86683950Y21511660D03*
X79808950Y21511660D03*
X86683950Y21111660D03*
X79808950Y21111660D03*
X86683950Y20711660D03*
X79808950Y20711660D03*
D21*
X84440250Y20511660D03*
X82052650Y20511660D03*
D19*
X86683950Y20311660D03*
X79808950Y20311660D03*
X86683950Y19911660D03*
X79808950Y19911660D03*
X86683950Y19511660D03*
X79808950Y19511660D03*
D20*
X83246450Y19317860D03*
D19*
X86683950Y19111660D03*
X79808950Y19111660D03*
X86683950Y18711660D03*
X79808950Y18711660D03*
X86683950Y18311660D03*
X79808950Y18311660D03*
X86683950Y17911660D03*
X79808950Y17911660D03*
D18*
X85846450Y17074160D03*
X85446450Y17074160D03*
X85046450Y17074160D03*
X84646450Y17074160D03*
X84246450Y17074160D03*
X83846450Y17074160D03*
X83446450Y17074160D03*
X83046450Y17074160D03*
X82646450Y17074160D03*
X82246450Y17074160D03*
X81846450Y17074160D03*
X81446450Y17074160D03*
X81046450Y17074160D03*
X80646450Y17074160D03*
%TD*%
D22*
%TO.C,U8*%
X59391450Y22425659D03*
X59391450Y21775659D03*
X59391450Y21125659D03*
X59391450Y20475659D03*
X59391450Y19825659D03*
X59391450Y19175659D03*
X59391450Y18525659D03*
X59391450Y17875659D03*
X59391450Y17225659D03*
X59391450Y16575659D03*
X65191450Y16575659D03*
X65191450Y17225659D03*
X65191450Y17875659D03*
X65191450Y18525659D03*
X65191450Y19175659D03*
X65191450Y19825659D03*
X65191450Y20475659D03*
X65191450Y21125659D03*
X65191450Y21775659D03*
X65191450Y22425659D03*
%TD*%
%TO.C,U9*%
X65191450Y24830660D03*
X65191450Y25480660D03*
X65191450Y26130660D03*
X65191450Y26780660D03*
X65191450Y27430660D03*
X65191450Y28080660D03*
X65191450Y28730660D03*
X65191450Y29380660D03*
X65191450Y30030660D03*
X65191450Y30680660D03*
X59391450Y30680660D03*
X59391450Y30030660D03*
X59391450Y29380660D03*
X59391450Y28730660D03*
X59391450Y28080660D03*
X59391450Y27430660D03*
X59391450Y26780660D03*
X59391450Y26130660D03*
X59391450Y25480660D03*
X59391450Y24830660D03*
%TD*%
D10*
%TO.C,R40*%
X109500002Y43492000D03*
X109500002Y44508000D03*
%TD*%
%TO.C,R37*%
X104928000Y43492000D03*
X104928000Y44508000D03*
%TD*%
%TO.C,R34*%
X103320000Y43492000D03*
X103320000Y44508000D03*
%TD*%
%TO.C,R33*%
X101796002Y43492000D03*
X101796002Y44508000D03*
%TD*%
D12*
%TO.C,FID3*%
X11000000Y6000000D03*
%TD*%
D11*
%TO.C,R41*%
X67371450Y13023659D03*
X68387450Y13023659D03*
%TD*%
D23*
%TO.C,DVI1*%
X101150000Y57450000D03*
D24*
X101150000Y51400000D03*
D23*
X116850000Y57450000D03*
D24*
X116850000Y51400000D03*
D25*
X104500000Y50450000D03*
X105000000Y50450000D03*
X105500000Y50450000D03*
X106000000Y50450000D03*
X106500000Y50450000D03*
X107000000Y50450000D03*
X107500000Y50450000D03*
X108000000Y50450000D03*
X108500000Y50450000D03*
X109000000Y50450000D03*
X109500000Y50450000D03*
X110000000Y50450000D03*
X110500000Y50450000D03*
X111000000Y50450000D03*
X111500000Y50450000D03*
X112000000Y50450000D03*
X112500000Y50450000D03*
X113000000Y50450000D03*
X113500000Y50450000D03*
%TD*%
D10*
%TO.C,R36*%
X100188001Y43492000D03*
X100188001Y44508000D03*
%TD*%
%TO.C,R35*%
X98664001Y43492001D03*
X98664001Y44508001D03*
%TD*%
%TO.C,R38*%
X106452001Y43492000D03*
X106452001Y44508000D03*
%TD*%
%TO.C,R39*%
X107976000Y43492000D03*
X107976000Y44508000D03*
%TD*%
%TO.C,C13*%
X89469450Y12007660D03*
X89469450Y10991660D03*
%TD*%
D22*
%TO.C,U7*%
X59391450Y14170660D03*
X59391450Y13520660D03*
X59391450Y12870660D03*
X59391450Y12220660D03*
X59391450Y11570660D03*
X59391450Y10920660D03*
X59391450Y10270660D03*
X59391450Y9620660D03*
X59391450Y8970660D03*
X59391450Y8320660D03*
X65191450Y8320660D03*
X65191450Y8970660D03*
X65191450Y9620660D03*
X65191450Y10270660D03*
X65191450Y10920660D03*
X65191450Y11570660D03*
X65191450Y12220660D03*
X65191450Y12870660D03*
X65191450Y13520660D03*
X65191450Y14170660D03*
%TD*%
D12*
%TO.C,FID1*%
X122000000Y2000000D03*
%TD*%
D26*
%TO.C,U6*%
X39876450Y13400660D03*
X40676450Y13400660D03*
X41476450Y13400660D03*
X42276450Y13400660D03*
X43076450Y13400660D03*
X43876450Y13400660D03*
X44676450Y13400660D03*
X45476450Y13400660D03*
X46276450Y13400660D03*
X47076450Y13400660D03*
X47876450Y13400660D03*
D27*
X49976450Y15500660D03*
X49976450Y16300660D03*
X49976450Y17100660D03*
X49976450Y17900660D03*
X49976450Y18700660D03*
X49976450Y19500660D03*
X49976450Y20300660D03*
X49976450Y21100660D03*
X49976450Y21900660D03*
X49976450Y22700660D03*
X49976450Y23500660D03*
D26*
X47876450Y25600660D03*
X47076450Y25600660D03*
X46276450Y25600660D03*
X45476450Y25600660D03*
X44676450Y25600660D03*
X43876450Y25600660D03*
X43076450Y25600660D03*
X42276450Y25600660D03*
X41476450Y25600660D03*
X40676450Y25600660D03*
X39876450Y25600660D03*
D27*
X37776450Y23500660D03*
X37776450Y22700660D03*
X37776450Y21900660D03*
X37776450Y21100660D03*
X37776450Y20300660D03*
X37776450Y19500660D03*
X37776450Y18700660D03*
X37776450Y17900660D03*
X37776450Y17100660D03*
X37776450Y16300660D03*
X37776450Y15500660D03*
%TD*%
D13*
%TO.C,C36*%
X41082450Y10864660D03*
X39304450Y10864660D03*
%TD*%
D11*
%TO.C,R24*%
X32319450Y21913660D03*
X33335450Y21913660D03*
%TD*%
%TO.C,R28*%
X33335450Y17341660D03*
X32319450Y17341660D03*
%TD*%
D28*
%TO.C,C30*%
X22016000Y48500000D03*
X19984000Y48500000D03*
%TD*%
D29*
%TO.C,LED_HOST3*%
X72238000Y59000000D03*
X73762000Y59000000D03*
%TD*%
D10*
%TO.C,R18*%
X13760000Y16266000D03*
X13760000Y15250000D03*
%TD*%
D30*
%TO.C,USB-HOST4*%
X91900000Y53150000D03*
D31*
X88500000Y50800000D03*
D32*
X86000000Y50800000D03*
X84000000Y50800000D03*
D31*
X81500000Y50800000D03*
D30*
X78100000Y53150000D03*
D33*
X88500000Y50950000D03*
X86000000Y50950000D03*
X84000000Y50950000D03*
D34*
X81500000Y50950000D03*
%TD*%
D28*
%TO.C,C46*%
X120984000Y41500000D03*
X123016000Y41500000D03*
%TD*%
D14*
%TO.C,Q2*%
X22160000Y28700000D03*
X24360000Y30300000D03*
X22160000Y30300000D03*
X24360000Y28700000D03*
%TD*%
D29*
%TO.C,PWR_LED1*%
X119238000Y59000000D03*
X120762000Y59000000D03*
%TD*%
D10*
%TO.C,C25*%
X20760000Y28992000D03*
X20760000Y30008000D03*
%TD*%
D35*
%TO.C,L1*%
X126750000Y29700000D03*
X126750000Y28300000D03*
%TD*%
D10*
%TO.C,R45*%
X127500000Y45992000D03*
X127500000Y47008000D03*
%TD*%
D36*
%TO.C,D4*%
X123000000Y44000000D03*
X123000000Y49000000D03*
%TD*%
D11*
%TO.C,R16*%
X24750000Y42750000D03*
X25766000Y42750000D03*
%TD*%
D10*
%TO.C,C20*%
X17010000Y16258000D03*
X17010000Y15242000D03*
%TD*%
%TO.C,R20*%
X21000000Y16258000D03*
X21000000Y15242000D03*
%TD*%
%TO.C,C22*%
X12250000Y29000000D03*
X12250000Y30016000D03*
%TD*%
D11*
%TO.C,R9*%
X130984000Y40750000D03*
X132000000Y40750000D03*
%TD*%
D10*
%TO.C,R13*%
X12760000Y15242000D03*
X12760000Y16258000D03*
%TD*%
D30*
%TO.C,USB-HOST2*%
X43900000Y53150000D03*
D31*
X40500000Y50800000D03*
D32*
X38000000Y50800000D03*
X36000000Y50800000D03*
D31*
X33500000Y50800000D03*
D30*
X30100000Y53150000D03*
D33*
X40500000Y50950000D03*
X38000000Y50950000D03*
X36000000Y50950000D03*
D34*
X33500000Y50950000D03*
%TD*%
D28*
%TO.C,C33*%
X69266000Y48500000D03*
X67234000Y48500000D03*
%TD*%
D37*
%TO.C,USB-PWR1*%
X123072400Y53970000D03*
X132927600Y53970000D03*
D38*
X123072400Y58150000D03*
X132927600Y58150000D03*
D39*
X123072400Y53970000D03*
X132927600Y53970000D03*
D40*
X123072400Y58150000D03*
X132927600Y58150000D03*
D41*
X131325000Y53068000D03*
X130525000Y53068000D03*
D42*
X129250000Y53068000D03*
X128250000Y53068000D03*
X127750000Y53068000D03*
X126750000Y53068000D03*
D41*
X125475000Y53068000D03*
X124675000Y53068000D03*
X124925000Y53068000D03*
X125725000Y53068000D03*
D42*
X126250000Y53068000D03*
X127250000Y53068000D03*
X128750000Y53068000D03*
X129750000Y53068000D03*
D41*
X130275000Y53068000D03*
X131075000Y53068000D03*
%TD*%
D11*
%TO.C,R11*%
X121508000Y30250000D03*
X120492000Y30250000D03*
%TD*%
D28*
%TO.C,C34*%
X94016000Y48500000D03*
X91984000Y48500000D03*
%TD*%
D10*
%TO.C,C23*%
X13500000Y28992000D03*
X13500000Y30008000D03*
%TD*%
D29*
%TO.C,LED_HOST1*%
X24238000Y59000000D03*
X25762000Y59000000D03*
%TD*%
D43*
%TO.C,R26*%
X110147000Y14500001D03*
X107353000Y14500001D03*
%TD*%
D11*
%TO.C,R10*%
X121508000Y29000000D03*
X120492000Y29000000D03*
%TD*%
D44*
%TO.C,D2*%
X106850000Y12000000D03*
X110650000Y12000000D03*
%TD*%
D30*
%TO.C,USB-HOST3*%
X67900000Y53150000D03*
D31*
X64500000Y50800000D03*
D32*
X62000000Y50800000D03*
X60000000Y50800000D03*
D31*
X57500000Y50800000D03*
D30*
X54100000Y53150000D03*
D33*
X64500000Y50950000D03*
X62000000Y50950000D03*
X60000000Y50950000D03*
D34*
X57500000Y50950000D03*
%TD*%
D11*
%TO.C,R12*%
X25758000Y44000000D03*
X24742000Y44000000D03*
%TD*%
%TO.C,R7*%
X130992000Y42750000D03*
X132008000Y42750000D03*
%TD*%
%TO.C,C32*%
X14758000Y14000000D03*
X13742000Y14000000D03*
%TD*%
%TO.C,R1*%
X120508000Y47000000D03*
X119492000Y47000000D03*
%TD*%
D28*
%TO.C,C27*%
X24242000Y45750000D03*
X26274000Y45750000D03*
%TD*%
%TO.C,C31*%
X46016000Y48500000D03*
X43984000Y48500000D03*
%TD*%
D13*
%TO.C,C18*%
X124639000Y31250000D03*
X122861000Y31250000D03*
%TD*%
D10*
%TO.C,C26*%
X25760000Y30008000D03*
X25760000Y28992000D03*
%TD*%
D44*
%TO.C,T1*%
X9560040Y13892560D03*
X11462500Y13892560D03*
X10507460Y16102360D03*
%TD*%
D45*
%TO.C,U2*%
X122975000Y29500000D03*
X122975000Y29000000D03*
X122975000Y28500000D03*
X124525000Y29500000D03*
X124525000Y29000000D03*
X124525000Y28500000D03*
%TD*%
D10*
%TO.C,C24*%
X23500000Y16258000D03*
X23500000Y15242000D03*
%TD*%
D11*
%TO.C,R48*%
X122992000Y10500000D03*
X124008000Y10500000D03*
%TD*%
D10*
%TO.C,R15*%
X11000000Y30008000D03*
X11000000Y28992000D03*
%TD*%
D29*
%TO.C,Act/Sus1*%
X1238000Y59000000D03*
X2762000Y59000000D03*
%TD*%
D10*
%TO.C,C21*%
X18260000Y16266000D03*
X18260000Y15250000D03*
%TD*%
%TO.C,R22*%
X19750000Y16266000D03*
X19750000Y15250000D03*
%TD*%
D11*
%TO.C,R27*%
X113258000Y14500000D03*
X112242000Y14500000D03*
%TD*%
D13*
%TO.C,C29*%
X124639000Y25250001D03*
X122861000Y25250001D03*
%TD*%
%TO.C,C17*%
X124639000Y32749999D03*
X122861000Y32749999D03*
%TD*%
D29*
%TO.C,LED_HOST4*%
X96238000Y59000000D03*
X97762000Y59000000D03*
%TD*%
D36*
%TO.C,D3*%
X117500000Y46500000D03*
X117500000Y41500000D03*
%TD*%
D46*
%TO.C,U4*%
X19449900Y44950000D03*
X19449900Y44000000D03*
X19449900Y43050000D03*
X22050100Y43050000D03*
X22050100Y44000000D03*
X22050100Y44950000D03*
%TD*%
D47*
%TO.C,USB-PGM1*%
X138970000Y48107600D03*
X138970000Y38252400D03*
D48*
X143150000Y48107600D03*
X143150000Y38252400D03*
D49*
X138970000Y48107600D03*
X138970000Y38252400D03*
D35*
X143150000Y48107600D03*
X143150000Y38252400D03*
D50*
X138068000Y39855000D03*
X138068000Y40655000D03*
D51*
X138068000Y41930000D03*
X138068000Y42930000D03*
X138068000Y43430000D03*
X138068000Y44430000D03*
D50*
X138068000Y45705000D03*
X138068000Y46505000D03*
X138068000Y46255000D03*
X138068000Y45455000D03*
D51*
X138068000Y44930000D03*
X138068000Y43930000D03*
X138068000Y42430000D03*
X138068000Y41430000D03*
D50*
X138068000Y40905000D03*
X138068000Y40105000D03*
%TD*%
D11*
%TO.C,R47*%
X122984000Y12500000D03*
X124000000Y12500000D03*
%TD*%
D52*
%TO.C,U5*%
X20920000Y25500000D03*
X20280000Y25500000D03*
X19640000Y25500000D03*
X19000000Y25500000D03*
X18360000Y25500000D03*
X17720000Y25500000D03*
X17080000Y25500000D03*
X16440000Y25500000D03*
X15800000Y25500000D03*
X15160000Y25500000D03*
X14520000Y25500000D03*
X13880000Y25500000D03*
X13240000Y25500000D03*
X12600000Y25500000D03*
X12600000Y20000000D03*
X13240000Y20000000D03*
X13880000Y20000000D03*
X14520000Y20000000D03*
X15160000Y20000000D03*
X15800000Y20000000D03*
X16440000Y20000000D03*
X17080000Y20000000D03*
X17720000Y20000000D03*
X18360000Y20000000D03*
X19000000Y20000000D03*
X19640000Y20000000D03*
X20280000Y20000000D03*
X20920000Y20000000D03*
%TD*%
D13*
%TO.C,C28*%
X124639000Y26750000D03*
X122861000Y26750000D03*
%TD*%
D11*
%TO.C,R17*%
X24742000Y41500000D03*
X25758000Y41500000D03*
%TD*%
%TO.C,C19*%
X121500000Y27750000D03*
X120484000Y27750000D03*
%TD*%
D10*
%TO.C,R14*%
X15760000Y15242000D03*
X15760000Y16258000D03*
%TD*%
D11*
%TO.C,R49*%
X122984000Y8500000D03*
X124000000Y8500000D03*
%TD*%
D10*
%TO.C,R44*%
X126000000Y45992000D03*
X126000000Y47008000D03*
%TD*%
D30*
%TO.C,USB-HOST1*%
X19900000Y53150000D03*
D31*
X16500000Y50800000D03*
D32*
X14000000Y50800000D03*
X12000000Y50800000D03*
D31*
X9500000Y50800000D03*
D30*
X6100000Y53150000D03*
D33*
X16500000Y50950000D03*
X14000000Y50950000D03*
X12000000Y50950000D03*
D34*
X9500000Y50950000D03*
%TD*%
D10*
%TO.C,R21*%
X22250000Y16258000D03*
X22250000Y15242000D03*
%TD*%
%TO.C,R19*%
X14760000Y16258000D03*
X14760000Y15242000D03*
%TD*%
D53*
%TO.C,D1*%
X128992000Y38500000D03*
X133992000Y38500000D03*
%TD*%
D54*
%TO.C,Q3*%
X114857440Y11050040D03*
X114857440Y12952500D03*
X112647640Y11997460D03*
%TD*%
D29*
%TO.C,LED_HOST2*%
X48238000Y59000000D03*
X49762000Y59000000D03*
%TD*%
M02*
